<svg xmlns="http://www.w3.org/2000/svg" viewBox="0 0 292 320.58"><defs><style>.cls-1{fill:#fff;}.cls-2{fill:#00801f;}</style></defs><g id="Layer_2" data-name="Layer 2"><g id="Layer_1-2" data-name="Layer 1"><path d="M144.74,320.58c-9.33-.65-18.82-.42-27.94-2.14-14.26-2.69-23.63-14.25-24.42-28.68-.41-7.43-.81-15-.07-22.32,2.4-23.66-7.31-42.77-21.64-60.3C25.74,152.18,51.09,71,119.36,51.3c38.69-11.18,81,3.58,104.94,36.59,23.42,32.34,24.34,77.52,2.16,110.23-2.71,4-5.87,7.72-8.74,11.63-11.48,15.59-21.05,31.73-18.64,52.44.93,8,.32,16.18.11,24.26-.51,19.38-13.73,32.78-33.05,33.47-7.11.26-14.24.05-21.36.05ZM106,252h15.14c28.24,0,28.81,0,30.74-28.39.84-12.33-1.2-24.86-2.07-39.56-15.32,14.3-24.4,16.49-36.51,10.68-16.51-7.94-36.59-43.32-35.28-62.15,21.28-3.79,38.52-1.4,61.1,8.47,19.19-22.69,48.41-31.25,76.18-21.74-10.13,27.47-16.86,57.21-50.74,64.37v67.76h19.87c2.84-21.72,13.65-39,26.71-55.38,15.34-19.27,20.42-41.79,16.6-65.79C222.32,96,194.2,68.41,160.28,62.55A83.78,83.78,0,0,0,80.77,198C93.34,213.47,103.61,230.16,106,252ZM92.43,140.42c3.45,17,8.53,30.57,19.86,40.5,5.58,4.89,12.27,7.72,19.58,3.75,6.82-3.71,10.33-9.77,9.36-17.67-1.16-9.41-6.11-16.79-15.2-19.43C115.07,144.38,103.65,142.74,92.43,140.42Zm109.39-9.83-3-2.9c-14.5-.41-29.1-.54-41.33,9.25-11.05,8.85-10,19.14-2.79,29,5.7,7.8,17.63,7.48,25.34-1.92C188.4,153.82,194.65,141.82,201.82,130.59ZM184.11,266.48c-23.28,0-46.21,0-69.15,0-4.86,0-9-.12-8.85,6.81.16,7.16,5,6.37,9.42,6.38,20.08.05,40.17-.32,60.23.18C185.37,280.05,186.91,275.87,184.11,266.48ZM109,295.64c9.81,15.34,64.41,14.95,72.61,0Z"/><path d="M92.09,38.19c-1.94,2.57-3,5.29-4.5,5.64-2.51.57-6.71.58-7.84-.93a96.29,96.29,0,0,1-10-17.31c-.67-1.46,1.08-5.14,2.75-6.26s5.91-1.3,6.79-.16C83.85,25.11,87.75,31.6,92.09,38.19Z"/><path d="M224.18,24.42c-4.33,6.9-7.84,13.33-12.3,19-1,1.34-6,1.22-7.81-.09-1.66-1.19-2.78-5.45-1.93-7.39a73.76,73.76,0,0,1,9.31-15.54c1.25-1.6,5.18-2.1,7.51-1.55C220.83,19.32,222.14,22.12,224.18,24.42Z"/><path d="M22.92,66.33c9,6,15.45,10,21.45,14.51,1.06.8,1.16,4.56.22,5.92-1.26,1.82-4.77,4.19-5.93,3.6a109,109,0,0,1-19.2-12C18.41,77.57,21.23,71.93,22.92,66.33Z"/><path d="M267.17,67.69c2.65,2.38,5.59,3.77,5.89,5.59.4,2.41-.47,6.2-2.22,7.56a67.35,67.35,0,0,1-15,8.75c-2,.84-5.77-.26-7.52-1.83-1.28-1.16-1.63-5.85-.59-6.67C253.72,76.38,260.23,72.35,267.17,67.69Z"/><path d="M139.54,13c0-2.58-.87-5.63.22-7.6,1.32-2.39,4.14-5,6.6-5.36,1.83-.25,5.68,2.79,5.94,4.72A65.63,65.63,0,0,1,152.36,23c-.32,2.18-4.27,5.33-6.53,5.3s-5.19-3.27-6.14-5.74c-1.07-2.82-.25-6.35-.25-9.57Z"/><path d="M14.2,151.87C8.74,150.51-.33,154.67,0,145c.29-8.43,8.71-5.92,13.93-5.67s14.28-3.73,14.36,6C28.38,155.33,19.16,150.12,14.2,151.87Z"/><path d="M280.56,137.25c3.65,2.41,11.29,5,11.42,8,.39,8.8-7.87,6.52-13,6.17-5.52-.37-15.05,4.13-14.95-6.32C264.08,135.19,273.59,141.14,280.56,137.25Z"/><path class="cls-1" d="M106,252c-2.42-21.88-12.69-38.57-25.26-54A83.78,83.78,0,0,1,160.28,62.55c33.92,5.86,62,33.49,67.49,67.76,3.82,24-1.26,46.52-16.6,65.79-13.06,16.4-23.87,33.66-26.71,55.38H164.59V183.72c33.88-7.16,40.61-36.9,50.74-64.37-27.77-9.51-57-.95-76.18,21.74-22.58-9.87-39.82-12.26-61.1-8.47-1.31,18.83,18.77,54.21,35.28,62.15,12.11,5.81,21.19,3.62,36.51-10.68.87,14.7,2.91,27.23,2.07,39.56-1.93,28.43-2.5,28.4-30.74,28.39Z"/><path class="cls-2" d="M92.43,140.42c11.22,2.32,22.64,4,33.6,7.15,9.09,2.64,14,10,15.2,19.43,1,7.9-2.54,14-9.36,17.67-7.31,4-14,1.14-19.58-3.75C101,171,95.88,157.4,92.43,140.42Zm11.19,7c-1,.81-2.83,1.8-2.71,2.27.51,1.91,1.16,4.23,2.58,5.4q13,10.69,26.42,20.84c1.46,1.11,3.75,1.13,5.66,1.65-.11-2,.61-4.94-.46-5.93-7.31-6.75-14.89-13.24-22.63-19.51C110,150.19,106.83,149.13,103.62,147.46Z"/><path class="cls-2" d="M201.82,130.59c-7.17,11.23-13.42,23.23-21.8,33.47-7.71,9.4-19.64,9.72-25.34,1.92-7.23-9.9-8.26-20.19,2.79-29,12.23-9.79,26.83-9.66,41.33-9.25Zm-47.29,32c2,.19,2.9.54,3.28.26,10.45-7.75,20.89-15.51,31.21-23.44,1-.76,1.12-2.65,1.64-4-1.92-.51-4.62-2.09-5.65-1.35q-14.73,10.59-28.85,22C154.8,157.14,155.06,160.24,154.53,162.6Z"/><path class="cls-1" d="M184.11,266.48c2.8,9.39,1.26,13.57-8.35,13.34-20.06-.5-40.15-.13-60.23-.18-4.47,0-9.26.78-9.42-6.38-.16-6.93,4-6.83,8.85-6.81C137.9,266.53,160.83,266.48,184.11,266.48Z"/><path class="cls-1" d="M109,295.64h72.61C173.44,310.59,118.84,311,109,295.64Z"/><path class="cls-1" d="M103.62,147.46c3.21,1.67,6.41,2.73,8.86,4.72,7.74,6.27,15.32,12.76,22.63,19.51,1.07,1,.35,3.91.46,5.93-1.91-.52-4.2-.54-5.66-1.65q-13.41-10.17-26.42-20.84c-1.42-1.17-2.07-3.49-2.58-5.4C100.79,149.26,102.61,148.27,103.62,147.46Z"/><path class="cls-1" d="M154.53,162.6c.53-2.36.27-5.46,1.63-6.56q14.09-11.43,28.85-22c1-.74,3.73.84,5.65,1.35-.52,1.37-.65,3.26-1.64,4-10.32,7.93-20.76,15.69-31.21,23.44C157.43,163.14,156.57,162.79,154.53,162.6Z"/></g></g></svg>