<svg xmlns="http://www.w3.org/2000/svg" viewBox="0 0 66.42 60.52"><defs><style>.cls-1{fill:#00801f;}</style></defs><g id="Layer_2" data-name="Layer 2"><g id="Layer_1-2" data-name="Layer 1"><path class="cls-1" d="M55.82,60.52l-1-1c-2.09-2.09-4.17-4.18-6.27-6.25a1.07,1.07,0,0,0-.68-.28q-6.31,0-12.61,0a3.24,3.24,0,0,1-2.67-1.1,3.2,3.2,0,0,1-.75-2.12q0-10.53,0-21.06v-.2a2.62,2.62,0,0,1,2.63-2.65c4,0,8,0,12,0a1.76,1.76,0,0,1,1.87,1.79,1.21,1.21,0,0,0,1.37,1.29H63.43a2.71,2.71,0,0,1,3,3V50.12a2.61,2.61,0,0,1-1.8,2.71,3.9,3.9,0,0,1-1.08.14c-2.37,0-4.74,0-7.11,0-.38,0-.47.12-.47.48q0,3.18,0,6.36v.64Z"/><path class="cls-1" d="M47.8,15.47c-1.38,0-2.69,0-4,0-.11,0-.3-.23-.33-.37a13,13,0,0,0-25.82,2c0,.17,0,.33,0,.55H16.8A12,12,0,0,0,5.36,25.14a12.42,12.42,0,0,0,9.27,17.23,12.69,12.69,0,0,0,2.14.16h12.7v4.3h-.66c-4.09,0-8.18,0-12.26,0A15.89,15.89,0,0,1,8.4,44.59,16.56,16.56,0,0,1,.33,33.32,16.76,16.76,0,0,1,7.78,16a17.6,17.6,0,0,1,5.66-2.31.64.64,0,0,0,.38-.42,17,17,0,0,1,5.57-9.09A16.72,16.72,0,0,1,29,.07a17.26,17.26,0,0,1,18.1,12,29.69,29.69,0,0,1,.67,3A1.81,1.81,0,0,1,47.8,15.47Z"/><path class="cls-1" d="M57.92,20.57v5.36H52.08V20.57Z"/><path class="cls-1" d="M52,16.08v3H48.73v-3Z"/><path class="cls-1" d="M48.67,20.73v2.49H46.18V20.73Z"/></g></g></svg>