<svg xmlns="http://www.w3.org/2000/svg" viewBox="0 0 71.03 57.63"><defs><style>.cls-1{fill:#00801f;}</style></defs><g id="Layer_2" data-name="Layer 2"><g id="Layer_1-2" data-name="Layer 1"><path class="cls-1" d="M49.61,20.67c-5.77-1.22-10.56.21-13.85,5.09a11.63,11.63,0,0,0-.09,13.69c3.28,5,8.1,6.48,13.91,5.25a40.68,40.68,0,0,1,0,4.28,2.83,2.83,0,0,1-2.79,2.46c-.46,0-.94,0-1.41,0l-33.09,0A3.18,3.18,0,0,1,8.72,48q0-22.27,0-44.56A3.07,3.07,0,0,1,12.09,0H46.21c2.25,0,3.43,1.18,3.44,3.41V20C49.65,20.18,49.63,20.4,49.61,20.67ZM14.66,37.36H30.83V35.28H14.66ZM30.85,23H14.65v2h16.2Zm0,6.16H14.66v2h16.2ZM14.63,41.43a9.25,9.25,0,0,1-.05,1c-.15.95.21,1.21,1.18,1.2,4.66,0,9.33,0,14,0,.36,0,.72,0,1.07-.06V41.43ZM32.94,17.3V6L32.11,6H30.9V17.3ZM36.37,9v8.31h2V9ZM20,9.64v7.62h2.07V9.64Zm21.82,2v5.6h2v-5.6ZM16.55,17.3V12.13h-2V17.3Zm8.87,0h2v-4.1h-2Z"/><path class="cls-1" d="M54.79,40.16c.85.78,1.68,1.59,2.57,2.32a1.2,1.2,0,0,0,.92.05,3.41,3.41,0,0,1,3.48.83c2.79,2.75,5.59,5.49,8.29,8.33a3.47,3.47,0,0,1-1.54,5.75,3.26,3.26,0,0,1-3.42-.73c-2.84-2.78-5.66-5.59-8.43-8.44A3.16,3.16,0,0,1,56,44.86a.92.92,0,0,0-.3-1.14c-.59-.56-1.18-1.12-1.72-1.73-.4-.45-.69-.41-1.18-.07a11.42,11.42,0,1,1-7-20.65,10.91,10.91,0,0,1,10.44,6.09c2.2,4.16,1.78,8.27-.91,12.14-.09.13-.17.26-.25.39s0,.06,0,.1Zm.6-7.38A9.35,9.35,0,1,0,45.9,42,9.29,9.29,0,0,0,55.39,32.78Zm12.16,23a5.45,5.45,0,0,0,1.21-1.1,1.46,1.46,0,0,0-.45-1.84l-7.7-7.69c-.81-.8-1.66-.87-2.31-.22s-.62,1.49.18,2.3q3.85,3.9,7.76,7.76A6.71,6.71,0,0,0,67.55,55.74Z"/><path class="cls-1" d="M7.39,47.74c-2.3-.28-3.43-1.61-3.43-4q0-11.51,0-23c0-4.51,0-9,0-13.53A3.33,3.33,0,0,1,7.39,3.77Z"/><path class="cls-1" d="M2.5,8.41V43A2.31,2.31,0,0,1,.05,41a5.92,5.92,0,0,1,0-.94Q0,25.75,0,11.41C0,9.52.85,8.49,2.5,8.41Z"/><path class="cls-1" d="M51.86,29.9l-7.49,7.48-4-4.1,1.35-1.16,2.39,2.7,6.24-6.47Z"/></g></g></svg>