<svg xmlns="http://www.w3.org/2000/svg" viewBox="0 0 59.18 58.92"><defs><style>.cls-1{fill:#00801f;}</style></defs><g id="Layer_2" data-name="Layer 2"><g id="Layer_1-2" data-name="Layer 1"><path class="cls-1" d="M29.45,43.16c-1.9,0-3.8,0-5.7,0-1,0-1.45-.33-1.32-1.34a.86.86,0,0,1,0-.16c.84-4.4-1.14-7.4-4.35-10.29C12.15,26,6.59,20.25.89,14.64A7,7,0,0,1,0,13.29a6.33,6.33,0,0,1,1.64-.47q28,0,56,0a6.27,6.27,0,0,1,1.53.43,6.52,6.52,0,0,1-.81,1.36C51.61,21.19,44.85,27.78,38,34.3a4.16,4.16,0,0,0-1.49,3.62c.12,1.28,0,2.57,0,3.85.07,1.1-.4,1.43-1.44,1.4C33.24,43.12,31.35,43.16,29.45,43.16Z"/><path class="cls-1" d="M55,10.68H32.32c.46-4.86,5.81-9.15,11.34-9.16S54.51,5.79,55,10.68Z"/><path class="cls-1" d="M31.65,5.47a5.3,5.3,0,0,1-5.45,5.27A5.4,5.4,0,0,1,21,5.37,5.43,5.43,0,0,1,26.38,0,5.35,5.35,0,0,1,31.65,5.47Z"/><path class="cls-1" d="M29.64,44.76c1.23,2.46,2.52,4.74,3.5,7.15a7.11,7.11,0,0,1,.45,3.83,3.92,3.92,0,0,1-4.89,3,4.49,4.49,0,0,1-3.07-5.44,21.26,21.26,0,0,1,1.51-3.68C27.9,48.06,28.75,46.49,29.64,44.76Z"/><path class="cls-1" d="M20.22,11H5.28a7.62,7.62,0,0,1,14.94,0Z"/></g></g></svg>