<svg xmlns="http://www.w3.org/2000/svg" viewBox="0 0 60.42 58.65"><defs><style>.cls-1{fill:#00801f;}.cls-2{fill:#fcfcfc;}</style></defs><g id="Layer_2" data-name="Layer 2"><g id="Layer_1-2" data-name="Layer 1"><path class="cls-1" d="M54.05,58.65a14.06,14.06,0,0,1-1.42-.36,6,6,0,0,1-2.69-2c-2.71-3.3-5.45-6.58-8.18-9.88l-2.64-3.18L39,43.1c-1.07.61-2.07,1.24-3.11,1.77a24.21,24.21,0,0,1-8,2.43,25.25,25.25,0,0,1-10-.69A24.49,24.49,0,0,1,5.29,38.48,23,23,0,0,1,1.78,14.92,23.42,23.42,0,0,1,6.29,8,25.2,25.2,0,0,1,25.6,0,24.77,24.77,0,0,1,39.16,4.51,23.34,23.34,0,0,1,48.7,18.3,22.31,22.31,0,0,1,49,27.54a23.25,23.25,0,0,1-4.22,9.89,2.2,2.2,0,0,0-.12.19L46.42,39l10.32,8.17,1.34,1a5.73,5.73,0,0,1,2.29,4s0,.07.05.11v1.19a.39.39,0,0,0-.05.14,5.73,5.73,0,0,1-3.66,4.63,11.64,11.64,0,0,1-1.54.41ZM24.75,41.14a19,19,0,0,0,5.12-.74A17.54,17.54,0,0,0,39,34.49a16.44,16.44,0,0,0,3.71-13,16.06,16.06,0,0,0-4.53-9.23A18.43,18.43,0,0,0,21.79,6.66a17.77,17.77,0,0,0-9.29,4.18,16.74,16.74,0,0,0-6,11.26A15.62,15.62,0,0,0,7.59,30,17.67,17.67,0,0,0,18,40,18.6,18.6,0,0,0,24.75,41.14Z"/><path class="cls-2" d="M24.75,41.14A18.6,18.6,0,0,1,18,40,17.67,17.67,0,0,1,7.59,30,15.62,15.62,0,0,1,6.45,22.1,16.74,16.74,0,0,1,12.5,10.84a17.77,17.77,0,0,1,9.29-4.18,18.43,18.43,0,0,1,16.42,5.55,16.06,16.06,0,0,1,4.53,9.23A16.44,16.44,0,0,1,39,34.49a17.54,17.54,0,0,1-9.16,5.91A19,19,0,0,1,24.75,41.14Zm5.41-3,.2-.06a17.16,17.16,0,0,0,5.49-3.25,1.58,1.58,0,0,0,.74-1.66,1.13,1.13,0,0,1,0-.26c0-1.72,0-3.43,0-5.15s0-3.3,0-5c0-2.12,0-4.24,0-6.36,0-.59-.24-.83-.84-.83H31.1c-.72,0-.94.22-.94.94V38.11Zm-10.94.09c0-.15,0-.18,0-.22V22a.65.65,0,0,0-.74-.72H13.72c-.71,0-.91.21-.91.92V33.92a.58.58,0,0,0,.17.39,14,14,0,0,0,3.51,2.62C17.36,37.39,18.28,37.77,19.22,38.2Zm8.63.57V27.62c0-.6-.22-.82-.84-.82H22.32c-.69,0-.91.22-.91.91V38.77A17.43,17.43,0,0,0,27.85,38.77Z"/><path class="cls-1" d="M30.16,38.11V16.52c0-.72.22-.94.94-.94h4.66c.6,0,.84.24.84.83,0,2.12,0,4.24,0,6.36,0,1.66,0,3.31,0,5s0,3.43,0,5.15a1.13,1.13,0,0,0,0,.26,1.58,1.58,0,0,1-.74,1.66,17.16,17.16,0,0,1-5.49,3.25Z"/><path class="cls-1" d="M19.22,38.2c-.94-.43-1.86-.81-2.73-1.27A14,14,0,0,1,13,34.31a.58.58,0,0,1-.17-.39V22.2c0-.71.2-.92.91-.92h4.79a.65.65,0,0,1,.74.72V38S19.24,38.05,19.22,38.2Z"/><path class="cls-1" d="M27.85,38.77a17.43,17.43,0,0,1-6.44,0V27.7c0-.69.22-.91.91-.91H27c.62,0,.84.22.84.82V38.77Z"/></g></g></svg>