<svg version="1.1" xmlns="http://www.w3.org/2000/svg" >
    <path d="M0 0 C6.83497076 5.60495557 11.32510241 11.5439041 13.6875 20.1875 C13.7890625 22.9921875 13.7890625 22.9921875 13.6875 25.1875 C14.8425 25.39375 15.9975 25.6 17.1875 25.8125 C25.01680739 27.7905759 31.17829351 33.6554719 35.6875 40.1875 C39.66185792 47.47382285 39.90743063 56.06865132 38.6875 64.1875 C35.90578819 73.20513719 30.8154876 79.6675768 22.66943359 84.34667969 C14.64663213 88.02549689 6.67393348 87.64021196 -1.9375 87.4375 C-3.43356968 87.41739241 -4.92966564 87.39914921 -6.42578125 87.3828125 C-10.05588291 87.34261204 -13.68226115 87.26428531 -17.3125 87.1875 C-17.3125 77.6175 -17.3125 68.0475 -17.3125 58.1875 C-13.6825 57.8575 -10.0525 57.5275 -6.3125 57.1875 C-7.83432271 53.38294323 -8.92263072 51.07116498 -11.24609375 47.90234375 C-11.81263672 47.12439453 -12.37917969 46.34644531 -12.96289062 45.54492188 C-13.55263672 44.74634766 -14.14238281 43.94777344 -14.75 43.125 C-15.33587891 42.32255859 -15.92175781 41.52011719 -16.52539062 40.69335938 C-19.09837742 37.17412091 -21.69296416 33.67223054 -24.3125 30.1875 C-28.35993849 31.53664616 -29.75022494 34.24491262 -32.0625 37.625 C-32.50062012 38.25374023 -32.93874023 38.88248047 -33.39013672 39.53027344 C-34.27890723 40.80644008 -35.16483074 42.08459433 -36.04785156 43.36474609 C-38.36604091 46.70598194 -40.75983293 49.9943873 -43.1328125 53.296875 C-44.48895618 55.0988839 -44.48895618 55.0988839 -44.3125 57.1875 C-40.6825 57.5175 -37.0525 57.8475 -33.3125 58.1875 C-33.3125 67.7575 -33.3125 77.3275 -33.3125 87.1875 C-38.15110076 87.25669609 -42.98795726 87.31632835 -47.82666016 87.35229492 C-49.46962326 87.36730136 -51.11254686 87.38771312 -52.75537109 87.41381836 C-55.12868042 87.45056359 -57.50145625 87.46730772 -59.875 87.48046875 C-60.59929199 87.49595261 -61.32358398 87.51143646 -62.06982422 87.52738953 C-70.31276822 87.53005734 -76.52411211 84.69026517 -82.55078125 79.08984375 C-88.97413669 72.15375927 -89.73235764 64.95102415 -89.65625 55.80859375 C-89.10442536 49.99562287 -87.15906525 44.64741236 -82.64453125 40.74609375 C-81.83048828 40.16021484 -81.83048828 40.16021484 -81 39.5625 C-80.113125 38.77875 -79.22625 37.995 -78.3125 37.1875 C-78.06297227 33.71617226 -78.06297227 33.71617226 -78.2734375 31.3671875 C-78.35985261 26.54522424 -76.88031875 22.04433584 -73.765625 18.35546875 C-70.29392731 15.19868169 -66.99498627 13.03034753 -62.3125 12.1875 C-59.27621399 12.33232285 -56.31072826 12.69445802 -53.3125 13.1875 C-53.10625 12.506875 -52.9 11.82625 -52.6875 11.125 C-48.5130294 2.20681282 -40.87132044 -2.5050651 -32 -6.1875 C-20.27406071 -8.17494734 -9.84776673 -6.95685036 0 0 Z " fill="#FFFFFF" transform="translate(89.3125,23.8125)"/>
</svg>
