<svg width="200" height="80" viewBox="0 0 200 80" fill="none" xmlns="http://www.w3.org/2000/svg">
<rect width="200" height="80" rx="25" fill="#E1F3F5"/>
<mask id="mask0_161_856" style="mask-type:luminance" maskUnits="userSpaceOnUse" x="-24" y="-8" width="499" height="577">
<path d="M-23.5117 568.617H474.378V-7.10651H-23.5117V568.617Z" fill="white"/>
</mask>
<g mask="url(#mask0_161_856)">
<path d="M60.3458 40.0416C60.3605 36.5298 58.9978 33.8104 58.94 33.6984C57.906 31.4624 56.4408 29.6931 54.913 28.3192C52.107 25.7946 48.9472 24.7376 48.8952 24.7209C48.8952 24.7194 48.8944 24.7165 48.8944 24.7165C46.3927 23.789 43.9561 23.4641 41.7888 23.4575C37.7748 23.4452 34.6842 24.7151 34.6842 24.7151C32.1809 25.6397 30.2015 26.9497 28.6639 28.3141C25.8157 30.8416 24.636 33.6926 24.636 33.6926C23.598 35.9279 23.2359 38.0985 23.2286 40.0357C23.2148 43.6217 24.6377 46.384 24.6377 46.384C25.6725 48.62 27.141 50.3842 28.6696 51.7581C31.4975 54.3031 34.6898 55.3571 34.6898 55.3571C37.1899 56.2847 39.6151 56.6125 41.7815 56.6191C45.7964 56.6314 48.887 55.3607 48.887 55.3607C51.3887 54.4361 53.3737 53.1291 54.9122 51.7639C57.7091 49.2815 58.8961 46.4894 58.9384 46.3891C59.9757 44.1538 60.3385 41.9781 60.3458 40.0416Z" fill="white"/>
</g>
<path d="M28.2266 27.9259C25.2831 30.5378 24.0645 33.484 24.0645 33.484C42.248 30.9368 47.1268 35.2715 47.1268 35.2715C45.7023 33.2695 43.7441 31.3221 41.7827 29.632C38.1038 26.4604 34.4469 24.2077 34.4469 24.2077C31.8598 25.1629 29.8154 26.5164 28.2266 27.9259Z" fill="url(#paint0_linear_161_856)"/>
<path d="M41.7261 22.9091C37.6079 22.9091 34.4473 24.2082 34.4473 24.2082C49.3197 33.8959 49.3417 40.0449 49.3417 40.0449C49.9177 37.7282 50.0747 35.1142 50.025 32.6812C49.9323 28.1125 49.1285 24.2096 49.1285 24.2096C46.5447 23.2515 44.0276 22.9164 41.7879 22.9091H41.7261Z" fill="url(#paint1_linear_161_856)"/>
<path d="M47.127 44.8184C49.3675 43.5448 51.5486 41.7951 53.4384 40.0432C56.9896 36.7553 59.5091 33.4871 59.5091 33.4871C58.4401 31.1769 56.9261 29.3494 55.347 27.9298C52.4256 25.2997 49.1275 24.2115 49.1275 24.2115C51.9789 40.4583 47.127 44.8184 47.127 44.8184Z" fill="url(#paint2_linear_161_856)"/>
<path d="M41.7832 46.788C44.3768 47.3026 47.3031 47.4429 50.0252 47.3986C55.1376 47.3157 59.5063 46.5983 59.5063 46.5983C60.5785 44.2888 60.9544 42.039 60.9625 40.0385C60.9756 36.3326 59.5063 33.4787 59.5063 33.4787C48.6682 46.7669 41.7873 46.7814 41.7873 46.7814" fill="url(#paint3_linear_161_856)"/>
<path d="M36.4453 44.8109C37.8715 46.8122 39.8288 48.7603 41.7887 50.4504C45.4708 53.6212 49.1212 55.8711 49.1212 55.8711C51.7074 54.9159 53.7584 53.5645 55.3472 52.1558C58.2898 49.5432 59.5077 46.597 59.5077 46.597C41.325 49.1441 36.4453 44.8109 36.4453 44.8109Z" fill="url(#paint4_linear_161_856)"/>
<path d="M33.5437 47.3997C33.6365 51.9677 34.4525 55.8669 34.4525 55.8669C36.3586 56.5742 38.2208 56.9435 39.965 57.0918H43.6236C46.8371 56.8098 49.1215 55.8706 49.1215 55.8706C34.2474 46.1807 34.2271 40.0309 34.2271 40.0309C33.6519 42.3469 33.4941 44.9616 33.5437 47.3954" fill="url(#paint5_linear_161_856)"/>
<path d="M30.1403 40.0348C26.5908 43.3234 24.0664 46.596 24.0664 46.596C25.1362 48.9061 26.6535 50.7293 28.2309 52.149C31.154 54.7783 34.4521 55.8672 34.4521 55.8672C31.6015 39.6197 36.451 35.2596 36.451 35.2596C34.2105 36.5339 32.0302 38.2822 30.1403 40.0348Z" fill="url(#paint6_linear_161_856)"/>
<path d="M33.5479 32.6797C28.4356 32.7626 24.066 33.4866 24.066 33.4866C22.9938 35.7961 22.6196 38.0386 22.6114 40.0398C22.5976 43.7457 24.0677 46.5996 24.0677 46.5996C34.9098 33.31 41.7899 33.2911 41.7899 33.2911C39.4901 32.8345 36.9266 32.6724 34.4745 32.6724C34.1638 32.6724 33.8546 32.6753 33.5479 32.6797Z" fill="url(#paint7_linear_161_856)"/>
<mask id="mask1_161_856" style="mask-type:luminance" maskUnits="userSpaceOnUse" x="-24" y="-8" width="499" height="577">
<path d="M-23.5117 568.617H474.378V-7.10651H-23.5117V568.617Z" fill="white"/>
</mask>
<g mask="url(#mask1_161_856)">
<path d="M85.8612 37.9023C86.2053 37.9023 86.4307 37.6712 86.4307 37.4233C86.4307 37.3005 86.3982 37.1761 86.3274 37.0686L84.1528 33.2122C85.0932 32.8488 85.6961 32.0797 85.8254 31.0554C85.8352 30.9893 85.8449 30.9231 85.8604 30.7349L85.8612 30.1352C85.8612 30.2675 85.9776 27.3249 82.8356 27.3249H79.8979C79.5888 27.3249 79.3105 27.556 79.3105 27.8643V37.3622C79.3105 37.6712 79.5693 37.9023 79.8979 37.9023C80.2266 37.9023 80.5024 37.6712 80.5024 37.3622V33.455H82.5761C82.6982 33.455 82.8186 33.455 82.9406 33.4398L85.308 37.5941C85.3942 37.7322 85.6017 37.9023 85.8612 37.9023ZM82.8356 28.3898C84.0283 28.3898 84.7027 29.0542 84.7027 30.1403L84.7035 30.6237C84.7035 31.6995 84.0202 32.3763 82.8275 32.3763H80.5024V28.3898H82.8356Z" fill="#545456"/>
<path d="M108.101 37.3622V29.795L113.493 37.6399C113.632 37.8253 113.839 37.9023 113.995 37.9023C114.271 37.9023 114.599 37.6857 114.618 37.4233V37.3303V27.8643C114.618 27.556 114.323 27.3249 113.995 27.3249C113.667 27.3249 113.407 27.556 113.407 27.8643V35.417L108.032 27.5866C107.947 27.4637 107.79 27.3249 107.548 27.3249C107.202 27.3249 106.91 27.5713 106.91 27.8802V37.3622C106.91 37.6705 107.184 37.9023 107.513 37.9023C107.842 37.9023 108.101 37.6705 108.101 37.3622Z" fill="#545456"/>
<path d="M124.331 27.3249C124.003 27.3249 123.743 27.556 123.743 27.8643V32.0651H118.61V27.8643C118.61 27.556 118.352 27.3249 118.022 27.3249C117.695 27.3249 117.418 27.556 117.418 27.8643V37.3622C117.418 37.6712 117.695 37.9023 118.022 37.9023C118.352 37.9023 118.61 37.6712 118.61 37.3622V33.1308H123.743V37.3622C123.743 37.6712 124.003 37.9023 124.331 37.9023C124.659 37.9023 124.953 37.6712 124.953 37.3622V27.8643C124.953 27.556 124.659 27.3249 124.331 27.3249Z" fill="#545456"/>
<path d="M131.988 27.1695C129.102 27.1695 127.754 29.6403 127.754 32.6047C127.754 35.5706 129.102 38.0566 131.988 38.0566C134.874 38.0566 136.223 35.5706 136.223 32.6047C136.223 29.6403 134.874 27.1695 131.988 27.1695ZM131.988 36.9444C130.036 36.9444 129.068 34.9839 129.068 32.6047C129.068 30.2269 130.036 28.281 131.988 28.281C133.94 28.281 134.909 30.2269 134.909 32.6047C134.909 34.9839 133.94 36.9444 131.988 36.9444Z" fill="#545456"/>
<path d="M147.215 27.8657C147.215 27.5575 146.956 27.3263 146.628 27.3263C146.3 27.3263 146.023 27.5575 146.023 27.8657V33.2863C146.023 35.1669 145.197 36.9537 143.132 36.9617H143.117C141.044 36.9602 140.215 35.1698 140.215 33.2863V27.8657C140.215 27.5575 139.939 27.3263 139.611 27.3263C139.282 27.3263 139.023 27.5575 139.023 27.8657V33.4404C139.023 35.6249 140.035 38.039 143.084 38.0571V38.0586H143.13C146.198 38.0521 147.215 35.6307 147.215 33.4404V27.8657Z" fill="#545456"/>
<path d="M72.6833 38.0501C72.7036 38.0494 72.7231 38.0472 72.7435 38.0465C72.7532 38.045 72.7638 38.045 72.7744 38.0436C75.5697 37.8611 76.5094 35.5437 76.5094 33.4392V32.8155C76.5094 32.8003 76.5094 32.785 76.5078 32.7697L76.5094 32.7595C76.5094 32.327 76.2873 32.0646 75.8203 32.0646H72.7272C72.3961 32.0646 72.1211 32.2965 72.1211 32.6054C72.1211 32.9144 72.3961 33.1303 72.7272 33.1303H75.3175V33.2844C75.3175 35.101 74.5471 36.8296 72.6345 36.9524C72.5694 36.9561 72.5287 36.959 72.4823 36.959C70.529 36.959 69.3909 34.9839 69.3909 32.6054C69.3909 30.2269 70.5144 28.281 72.4661 28.281C74.0224 28.281 74.334 29.0842 74.9034 29.0842C75.2321 29.0842 75.5079 28.8523 75.5079 28.5441C75.5079 28.4045 75.4558 28.2504 75.3354 28.1429C74.5585 27.4479 73.4854 27.1695 72.4661 27.1695C69.5796 27.1695 68.0762 29.6403 68.0762 32.6054C68.0762 35.5466 69.5739 38.0145 72.4148 38.0552V38.0566C72.4278 38.0566 72.4392 38.0559 72.4514 38.0559C72.462 38.0559 72.4726 38.0566 72.4848 38.0566C72.5523 38.0566 72.6182 38.0545 72.6833 38.0501Z" fill="#545456"/>
<path d="M152.896 36.9617C151.115 36.9617 150.874 35.9258 150.27 35.9258C150.063 35.9258 149.682 36.0654 149.682 36.4514C149.682 36.6062 149.751 36.7763 149.82 36.8541C150.581 37.7031 151.72 38.0586 152.896 38.0586C154.676 38.0586 156.336 36.7145 156.336 35.0775C156.336 31.1092 150.978 32.3748 150.978 29.8269C150.978 28.8695 151.825 28.2829 152.947 28.2829C154.451 28.2829 154.831 29.0862 155.402 29.0862C155.712 29.0862 155.99 28.8543 155.99 28.5453C155.99 28.4065 155.938 28.2517 155.817 28.1441C155.075 27.4651 153.967 27.1715 152.947 27.1715C151.34 27.1715 149.682 28.1288 149.682 29.8269C149.682 33.4099 155.039 32.0048 155.039 35.0775C155.039 36.1119 154.037 36.9617 152.896 36.9617Z" fill="#545456"/>
<path d="M94.6259 28.3898C94.9374 28.3898 95.2141 28.1732 95.2141 27.8643C95.2141 27.5553 94.9374 27.3241 94.6259 27.3241H89.6714C89.3614 27.3241 89.084 27.5553 89.084 27.8643V32.3428V32.8829V35.1836V37.3622C89.084 37.6705 89.3614 37.9023 89.6714 37.9023H94.6259C94.9374 37.9023 95.2141 37.6705 95.2141 37.3622C95.2141 37.0526 94.9374 36.8367 94.6259 36.8367H90.2766V34.9845V33.4238V32.8677H93.9872C94.298 32.8677 94.5567 32.651 94.5567 32.3428C94.5567 32.0339 94.298 31.802 93.9872 31.802H90.2766V28.3898H94.6259Z" fill="#545456"/>
<path d="M104.051 37.3622C104.051 37.0526 103.775 36.8374 103.462 36.8374H99.1137V34.9845V33.4245V32.8684H102.823C103.136 32.8684 103.393 32.6518 103.393 32.3428C103.393 32.0346 103.136 31.8027 102.823 31.8027H99.1137V28.3898H103.462C103.775 28.3898 104.051 28.1739 104.051 27.8643C104.051 27.556 103.775 27.3249 103.462 27.3249H98.5076C98.1969 27.3249 97.9219 27.556 97.9219 27.8643V32.3428V32.8829V35.1844V37.3622C97.9219 37.6705 98.1969 37.9023 98.5076 37.9023H103.462C103.775 37.9023 104.051 37.6705 104.051 37.3622Z" fill="#545456"/>
<path d="M164.679 28.3898C164.99 28.3898 165.266 28.1732 165.266 27.8643C165.266 27.5553 164.99 27.3241 164.679 27.3241H159.725C159.413 27.3241 159.137 27.5553 159.137 27.8643V32.3428V32.8829V35.1836V37.3622C159.137 37.6705 159.413 37.9023 159.725 37.9023H164.679C164.99 37.9023 165.266 37.6705 165.266 37.3622C165.266 37.0526 164.99 36.8367 164.679 36.8367H160.329V34.9845V33.4238V32.8677H164.04C164.351 32.8677 164.609 32.651 164.609 32.3428C164.609 32.0339 164.351 31.802 164.04 31.802H160.329V28.3898H164.679Z" fill="#545456"/>
<path d="M118.265 52.752C118.61 52.752 118.834 52.5193 118.834 52.2729C118.834 52.1493 118.802 52.0258 118.732 51.9174L116.557 48.0611C117.497 47.6984 118.099 46.9286 118.228 45.9051C118.239 45.8389 118.249 45.7728 118.264 45.5838L118.265 44.9833C118.265 45.1171 118.381 42.1738 115.239 42.1738H112.302C111.991 42.1738 111.715 42.4049 111.715 42.7146V52.2118C111.715 52.5193 111.974 52.752 112.302 52.752C112.63 52.752 112.907 52.5193 112.907 52.2118V48.3046H114.98C115.102 48.3046 115.223 48.3046 115.343 48.2894L117.711 52.443C117.798 52.5819 118.004 52.752 118.265 52.752ZM115.239 43.2387C116.432 43.2387 117.107 43.9038 117.107 44.9884V45.4733C117.107 46.5484 116.424 47.2259 115.231 47.2259H112.907V43.2387H115.239Z" fill="#545456"/>
<path d="M72.6833 52.899C72.7028 52.8983 72.7231 52.8968 72.7419 52.8953C72.7532 52.8946 72.7638 52.8946 72.7744 52.8932C75.5689 52.71 76.5102 50.3933 76.5102 48.2888V47.6651C76.5102 47.6491 76.5094 47.6346 76.5078 47.6193L76.5102 47.6092C76.5102 47.1766 76.2857 46.9142 75.8195 46.9142H72.7264C72.3977 46.9142 72.1211 47.1461 72.1211 47.455C72.1211 47.764 72.3977 47.9799 72.7264 47.9799H75.3175V48.134C75.3175 49.9506 74.5471 51.6792 72.6345 51.8028C72.5694 51.8057 72.5287 51.8086 72.4823 51.8086C70.529 51.8086 69.3892 49.8328 69.3892 47.455C69.3892 45.0773 70.5144 43.1313 72.4661 43.1313C74.0216 43.1313 74.3332 43.9338 74.9043 43.9338C75.2329 43.9338 75.5079 43.7019 75.5079 43.3937C75.5079 43.2549 75.4558 43.1 75.3354 42.9925C74.5585 42.2975 73.4854 42.0198 72.4661 42.0198C69.5796 42.0198 68.0762 44.4899 68.0762 47.455C68.0762 50.3962 69.5739 52.8641 72.4148 52.9048V52.9062C72.427 52.9062 72.4392 52.9048 72.4498 52.9048C72.462 52.9048 72.4734 52.9062 72.4848 52.9062C72.5523 52.9062 72.6182 52.9033 72.6833 52.899Z" fill="#545456"/>
<path d="M82.7444 42.5452C82.6581 42.3286 82.4165 42.1745 82.157 42.1745C81.8975 42.1745 81.6729 42.3286 81.5867 42.5452L77.8712 52.0265C77.8371 52.1035 77.8184 52.1966 77.8184 52.2889C77.8184 52.5361 78.0266 52.752 78.4074 52.752C78.6644 52.752 78.9085 52.5971 78.9947 52.3812L80.2728 49.1697H84.1095L85.4234 52.3812C85.5096 52.5971 85.7521 52.752 86.0108 52.752C86.3394 52.752 86.6169 52.5361 86.6169 52.2264C86.6169 52.1493 86.6169 52.057 86.5819 51.964L82.7444 42.5452ZM80.6894 48.104L82.157 44.3051L83.6775 48.104H80.6894Z" fill="#545456"/>
<path d="M89.5214 44.6272C89.5214 43.6691 90.3675 43.0825 91.4918 43.0825C92.9944 43.0825 93.376 43.8857 93.9446 43.8857C94.2562 43.8857 94.5337 43.6538 94.5337 43.3449C94.5337 43.2053 94.4808 43.0519 94.3604 42.9429C93.6176 42.2647 92.5112 41.9703 91.4918 41.9703C89.8834 41.9703 88.2246 42.9276 88.2246 44.6272C88.2246 48.2087 93.5826 46.8043 93.5826 49.877C93.5826 50.9114 92.5803 51.7612 91.4397 51.7612C89.6605 51.7612 89.4173 50.7261 88.812 50.7261C88.6045 50.7261 88.2246 50.8649 88.2246 51.2516C88.2246 51.4058 88.2938 51.5759 88.3637 51.6529C89.1244 52.5027 90.2642 52.8574 91.4397 52.8574C93.2198 52.8574 94.8786 51.5133 94.8786 49.877C94.8786 45.908 89.5214 47.1743 89.5214 44.6272Z" fill="#545456"/>
<path d="M125.057 42.0198C122.169 42.0198 120.822 44.4899 120.822 47.455C120.822 50.4202 122.169 52.9062 125.057 52.9062C127.942 52.9062 129.289 50.4202 129.289 47.455C129.289 44.4899 127.942 42.0198 125.057 42.0198ZM125.057 51.7941C123.103 51.7941 122.135 49.8328 122.135 47.455C122.135 45.0773 123.103 43.132 125.057 43.132C127.009 43.132 127.977 45.0773 127.977 47.455C127.977 49.8328 127.009 51.7941 125.057 51.7941Z" fill="#545456"/>
<path d="M138.635 42.1738H134.609H130.6C130.271 42.1738 129.979 42.4049 129.979 42.7139C129.979 43.0228 130.271 43.2387 130.6 43.2387H134.005V52.2264C134.005 52.5353 134.281 52.752 134.609 52.752C134.938 52.752 135.197 52.5353 135.197 52.2264V43.2387H138.635C138.964 43.2387 139.241 43.0228 139.241 42.7139C139.241 42.4049 138.964 42.1738 138.635 42.1738Z" fill="#545456"/>
<path d="M143.997 42.0198C141.111 42.0198 139.764 44.4899 139.764 47.455C139.764 50.4202 141.111 52.9062 143.997 52.9062C146.884 52.9062 148.231 50.4202 148.231 47.455C148.231 44.4899 146.884 42.0198 143.997 42.0198ZM143.997 51.7941C142.044 51.7941 141.076 49.8328 141.076 47.455C141.076 45.0773 142.044 43.132 143.997 43.132C145.95 43.132 146.917 45.0773 146.917 47.455C146.917 49.8328 145.95 51.7941 143.997 51.7941Z" fill="#545456"/>
<path d="M155.187 43.132C156.743 43.132 157.054 43.9346 157.624 43.9346C157.953 43.9346 158.229 43.7027 158.229 43.3937C158.229 43.2549 158.177 43.1008 158.056 42.9925C157.279 42.2975 156.207 42.0198 155.187 42.0198C152.301 42.0198 150.799 44.4899 150.799 47.455C150.799 50.4202 152.301 52.9062 155.187 52.9062C156.226 52.9062 157.297 52.582 158.056 51.9031C158.177 51.7948 158.229 51.6559 158.229 51.5164C158.229 51.2074 157.953 50.961 157.624 50.961C157.054 50.961 156.674 51.7948 155.153 51.7948C153.2 51.7948 152.111 49.8335 152.111 47.455C152.111 45.0773 153.235 43.132 155.187 43.132Z" fill="#545456"/>
<path d="M164.225 41.9703C161.339 41.9703 159.992 44.4411 159.992 47.4062C159.992 50.3713 161.339 52.8574 164.225 52.8574C167.112 52.8574 168.46 50.3713 168.46 47.4062C168.46 44.4411 167.112 41.9703 164.225 41.9703ZM164.225 51.7452C162.273 51.7452 161.304 49.784 161.304 47.4062C161.304 45.0285 162.273 43.0825 164.225 43.0825C166.179 43.0825 167.147 45.0285 167.147 47.4062C167.147 49.784 166.179 51.7452 164.225 51.7452Z" fill="#545456"/>
<path d="M176.802 51.6589H172.452V50.0059C172.453 50.0037 172.454 42.6487 172.454 42.6487C172.454 42.3398 172.177 42.1239 171.848 42.1239C171.519 42.1239 171.261 42.3398 171.261 42.6487V42.6902L171.26 42.6865V47.1651V47.7059V50.0066V52.1838C171.26 52.4927 171.536 52.7246 171.848 52.7246H176.802C177.114 52.7246 177.391 52.4927 177.391 52.1838C177.391 51.8748 177.114 51.6589 176.802 51.6589Z" fill="#545456"/>
<path d="M105.899 42.1738H102.961C102.649 42.1738 102.373 42.4049 102.373 42.7139V52.2118C102.373 52.5193 102.633 52.752 102.961 52.752C103.29 52.752 103.565 52.5193 103.565 52.2118V48.3046H105.639C105.761 48.3046 105.882 48.3046 106.003 48.2886C107.787 48.2458 108.923 47.1779 108.916 45.4805V44.8939C108.916 44.8241 108.911 44.7565 108.903 44.6918C108.775 43.1711 107.64 42.1738 105.899 42.1738ZM105.899 43.2387C107.091 43.2387 107.783 43.8937 107.783 44.9739L107.781 45.4863C107.781 46.5673 107.083 47.2252 105.891 47.2252H103.565V43.2387H105.899Z" fill="#545456"/>
</g>
<defs>
<linearGradient id="paint0_linear_161_856" x1="34.302" y1="44.8868" x2="23.9355" y2="31.0603" gradientUnits="userSpaceOnUse">
<stop stop-color="white"/>
<stop offset="1" stop-color="#00ACA1"/>
</linearGradient>
<linearGradient id="paint1_linear_161_856" x1="32.6625" y1="38.7399" x2="33.953" y2="22.2316" gradientUnits="userSpaceOnUse">
<stop stop-color="white"/>
<stop offset="1" stop-color="#00ACA1"/>
</linearGradient>
<linearGradient id="paint2_linear_161_856" x1="36.3653" y1="33.3597" x2="49.2108" y2="21.2966" gradientUnits="userSpaceOnUse">
<stop stop-color="white"/>
<stop offset="1" stop-color="#00ACA1"/>
</linearGradient>
<linearGradient id="paint3_linear_161_856" x1="43.2429" y1="31.888" x2="61.6554" y2="33.6909" gradientUnits="userSpaceOnUse">
<stop stop-color="white"/>
<stop offset="1" stop-color="#00ACA1"/>
</linearGradient>
<linearGradient id="paint4_linear_161_856" x1="49.2713" y1="35.1937" x2="59.6373" y2="49.0195" gradientUnits="userSpaceOnUse">
<stop stop-color="white"/>
<stop offset="1" stop-color="#00ACA1"/>
</linearGradient>
<linearGradient id="paint5_linear_161_856" x1="50.9059" y1="41.3398" x2="49.6154" y2="57.8474" gradientUnits="userSpaceOnUse">
<stop stop-color="white"/>
<stop offset="1" stop-color="#00ACA1"/>
</linearGradient>
<linearGradient id="paint6_linear_161_856" x1="47.2134" y1="46.7185" x2="34.3673" y2="58.7822" gradientUnits="userSpaceOnUse">
<stop stop-color="white"/>
<stop offset="1" stop-color="#00ACA1"/>
</linearGradient>
<linearGradient id="paint7_linear_161_856" x1="40.3308" y1="48.1914" x2="21.9182" y2="46.3885" gradientUnits="userSpaceOnUse">
<stop stop-color="white"/>
<stop offset="1" stop-color="#00ACA1"/>
</linearGradient>
</defs>
</svg>
