<svg width="200" height="80" viewBox="0 0 200 80" fill="none" xmlns="http://www.w3.org/2000/svg">
<rect width="200" height="80" rx="25" fill="#E1F3F5"/>
<g clip-path="url(#clip0_161_839)">
<path d="M177.266 32.3926C177.266 31.9311 177.411 31.5465 177.701 31.2389C177.991 30.9312 178.353 30.7773 178.777 30.7773C179.2 30.7773 179.551 30.9312 179.841 31.2389C180.131 31.5465 180.276 31.9183 180.276 32.367C180.276 32.8157 180.131 33.1874 179.841 33.4951C179.551 33.8028 179.188 33.9566 178.777 33.9566C178.366 33.9566 178.003 33.8028 177.713 33.4951C177.423 33.2003 177.266 32.8285 177.266 32.3926ZM177.543 32.3285C177.543 32.7259 177.652 33.0464 177.882 33.3156C178.111 33.5849 178.414 33.7259 178.777 33.7259C179.127 33.7259 179.43 33.5977 179.659 33.3285C179.889 33.0721 179.998 32.7516 179.998 32.367C179.998 31.9824 179.889 31.6619 179.659 31.4055C179.43 31.1363 179.127 31.0081 178.777 31.0081C178.426 31.0081 178.136 31.1363 177.894 31.3927C177.664 31.6491 177.543 31.9696 177.543 32.3285ZM178.196 33.29V31.4312H178.874C179.285 31.4312 179.49 31.6106 179.49 31.9568C179.49 32.2516 179.333 32.4183 179.03 32.4695L179.539 33.29H179.249L178.765 32.4952H178.475V33.29H178.196ZM178.475 31.6747V32.2644H178.753C178.898 32.2644 179.007 32.2516 179.067 32.226C179.164 32.1875 179.212 32.0978 179.212 31.9568C179.212 31.7645 179.079 31.6747 178.825 31.6747H178.475Z" fill="white"/>
<path d="M49.1607 47.5104C48.0483 48.9591 46.3797 49.677 44.1186 49.677C41.8575 49.677 40.1889 48.9591 39.0765 47.5104C37.964 46.0618 37.4199 44.3183 37.4199 42.2801C37.4199 40.2802 37.9761 38.5366 39.0765 37.0624C40.1889 35.5881 41.8575 34.8574 44.1186 34.8574C46.3797 34.8574 48.0483 35.5881 49.1607 37.0624C50.2732 38.5366 50.8173 40.2673 50.8173 42.2801C50.8294 44.3183 50.2732 46.0618 49.1607 47.5104ZM46.416 45.4978C46.948 44.7414 47.2261 43.6646 47.2261 42.2801C47.2261 40.8827 46.9601 39.8186 46.416 39.0623C45.884 38.3059 45.1101 37.9342 44.1065 37.9342C43.1029 37.9342 42.3291 38.3059 41.797 39.0623C41.2529 39.8186 40.9869 40.8827 40.9869 42.2801C40.9869 43.6774 41.2529 44.7414 41.797 45.4978C42.3412 46.2541 43.115 46.6259 44.1065 46.6259C45.1101 46.6259 45.884 46.2541 46.416 45.4978Z" fill="#057299"/>
<path d="M55.9633 49.4284H52.5293V30.6348H55.9633V49.4284Z" fill="#057299"/>
<path d="M65.2311 35.9468C65.8477 36.3186 66.3555 36.8314 66.7304 37.4852V30.8574H70.2007V49.6255H66.8634V47.7025C66.3797 48.523 65.8115 49.1255 65.1947 49.4973C64.566 49.869 63.7921 50.0613 62.8611 50.0613C61.3255 50.0613 60.0438 49.4076 58.9918 48.0871C57.9399 46.7795 57.4199 45.0873 57.4199 43.0361C57.4199 40.6645 57.9399 38.7928 58.9676 37.4339C59.9954 36.075 61.3738 35.3956 63.1029 35.3956C63.913 35.3956 64.6143 35.5751 65.2311 35.9468ZM66.0775 45.8565C66.5853 45.0873 66.8392 44.1002 66.8392 42.8823C66.8392 41.1773 66.4281 39.9722 65.618 39.2287C65.1222 38.7928 64.5418 38.562 63.8888 38.562C62.8853 38.562 62.1477 38.9595 61.6882 39.7671C61.2167 40.5748 60.9869 41.5619 60.9869 42.7541C60.9869 44.0361 61.2287 45.0617 61.7003 45.8309C62.1719 46.6 62.8973 46.9846 63.8768 46.9846C64.832 46.9975 65.5696 46.6128 66.0775 45.8565Z" fill="#057299"/>
<path d="M81.1502 43.6342C81.2711 44.493 81.4888 45.1341 81.8274 45.5571C82.444 46.3263 83.4961 46.7237 84.9834 46.7237C85.878 46.7237 86.6038 46.6211 87.1596 46.416C88.2117 46.0187 88.7437 45.3007 88.7437 44.2367C88.7437 43.6214 88.4899 43.1342 87.9698 42.8009C87.4496 42.4676 86.6276 42.1727 85.5029 41.9163L83.5805 41.4677C81.6944 41.0317 80.4006 40.5446 79.6872 40.0318C78.4901 39.1601 77.8976 37.814 77.8976 35.968C77.8976 34.2886 78.478 32.8912 79.6509 31.7759C80.8238 30.6606 82.5409 30.1094 84.8021 30.1094C86.6882 30.1094 88.3086 30.635 89.6383 31.6862C90.9686 32.7374 91.6701 34.263 91.7426 36.2628H88.1873C88.1273 35.1347 87.6434 34.3271 86.7607 33.8527C86.1681 33.5322 85.4304 33.3784 84.5483 33.3784C83.5687 33.3784 82.7828 33.5835 82.2021 33.9937C81.6218 34.404 81.3316 34.968 81.3316 35.6988C81.3316 36.3654 81.6218 36.8782 82.1902 37.1987C82.5647 37.4166 83.3511 37.6858 84.5483 37.9807L87.6553 38.7626C89.0219 39.1088 90.0378 39.5575 90.7267 40.1216C91.7788 41.0061 92.3108 42.2881 92.3108 43.9547C92.3108 45.6725 91.6819 47.0955 90.4366 48.2365C89.1788 49.3774 87.4134 49.9414 85.1284 49.9414C82.7947 49.9414 80.9568 49.3774 79.6147 48.2621C78.2725 47.1468 77.6074 45.6084 77.6074 43.647H81.1502V43.6342Z" fill="#057299"/>
<path d="M92.8672 38.2513V35.6617H94.6933V31.7773H98.091V35.6489H100.219V38.2384H98.091V45.597C98.091 46.161 98.1635 46.52 98.2967 46.6611C98.4298 46.8021 98.8524 46.8661 99.5539 46.8661C99.6626 46.8661 99.7714 46.8661 99.8808 46.8661C100.001 46.8661 100.11 46.8533 100.219 46.8405V49.5582L98.5986 49.6223C96.9788 49.6864 95.8661 49.3788 95.2734 48.725C94.8864 48.3147 94.6933 47.661 94.6933 46.8021V38.2513H92.8672Z" fill="#057299"/>
<path d="M107.291 40.9809C107.932 40.8912 108.391 40.7886 108.657 40.6604C109.153 40.4425 109.395 40.0963 109.395 39.622C109.395 39.0579 109.202 38.6606 108.827 38.4426C108.452 38.2247 107.896 38.1221 107.158 38.1221C106.336 38.1221 105.756 38.3272 105.417 38.7631C105.175 39.0836 105.006 39.5067 104.933 40.0322H101.62C101.693 38.8144 102.019 37.8144 102.587 37.0324C103.495 35.8017 105.066 35.1992 107.279 35.1992C108.718 35.1992 109.999 35.5069 111.124 36.1094C112.249 36.7119 112.805 37.8529 112.805 39.5323V45.9036C112.805 46.3524 112.817 46.878 112.829 47.5061C112.853 47.9805 112.926 48.3009 113.034 48.4804C113.143 48.6471 113.313 48.7881 113.542 48.9035V49.4419H109.818C109.709 49.1599 109.637 48.9035 109.6 48.6471C109.564 48.4035 109.528 48.1215 109.504 47.801C109.032 48.3522 108.476 48.8138 107.859 49.1983C107.122 49.647 106.275 49.8778 105.344 49.8778C104.147 49.8778 103.168 49.5188 102.382 48.8009C101.608 48.083 101.209 47.0702 101.209 45.7498C101.209 44.0448 101.838 42.8013 103.083 42.0321C103.772 41.6091 104.776 41.3142 106.106 41.1347L107.291 40.9809ZM109.383 42.6731C109.165 42.8141 108.948 42.9295 108.718 43.0193C108.488 43.109 108.186 43.1859 107.799 43.2628L107.013 43.4166C106.275 43.5576 105.756 43.7243 105.441 43.9166C104.897 44.2499 104.631 44.7627 104.631 45.455C104.631 46.0703 104.801 46.519 105.127 46.801C105.453 47.0831 105.852 47.2112 106.324 47.2112C107.074 47.2112 107.762 46.9805 108.391 46.519C109.02 46.0575 109.347 45.2242 109.371 44.0064V42.6731H109.383Z" fill="#057299"/>
<path d="M125.404 36.3273C126.263 37.0837 126.698 38.3272 126.698 40.0707V49.4291H123.179V40.9681C123.179 40.2373 123.082 39.6733 122.901 39.2887C122.562 38.5708 121.933 38.2118 120.991 38.2118C119.842 38.2118 119.044 38.7375 118.609 39.7759C118.391 40.3271 118.27 41.0322 118.27 41.8911V49.4162H114.836V35.5582H118.161V37.5837C118.596 36.8658 119.019 36.353 119.406 36.0453C120.108 35.4813 121.002 35.1992 122.079 35.1992C123.445 35.1992 124.545 35.571 125.404 36.3273Z" fill="#057299"/>
<path d="M135.863 35.7515C136.48 36.1233 136.976 36.6361 137.363 37.2899V30.6621H140.845V49.4302H137.508V47.5072C137.024 48.3277 136.456 48.9302 135.839 49.302C135.211 49.6737 134.437 49.866 133.506 49.866C131.97 49.866 130.688 49.2122 129.636 47.8918C128.585 46.5841 128.064 44.892 128.064 42.8408C128.064 40.4692 128.585 38.5975 129.612 37.2386C130.64 35.8797 132.019 35.2003 133.747 35.2003C134.545 35.2003 135.247 35.3798 135.863 35.7515ZM136.71 45.6612C137.217 44.892 137.472 43.9049 137.472 42.687C137.472 40.982 137.06 39.7769 136.262 39.0334C135.766 38.5975 135.186 38.3667 134.534 38.3667C133.53 38.3667 132.792 38.7642 132.321 39.5718C131.849 40.3795 131.619 41.3666 131.619 42.5588C131.619 43.8408 131.861 44.8664 132.332 45.6355C132.816 46.4047 133.53 46.7893 134.509 46.7893C135.464 46.8021 136.202 46.4175 136.71 45.6612Z" fill="#057299"/>
<path d="M148.197 40.9809C148.838 40.8912 149.285 40.7886 149.563 40.6604C150.059 40.4425 150.301 40.0963 150.301 39.622C150.301 39.0579 150.107 38.6606 149.733 38.4426C149.358 38.2247 148.802 38.1221 148.064 38.1221C147.242 38.1221 146.661 38.3272 146.323 38.7631C146.081 39.0836 145.912 39.5067 145.839 40.0322H142.526C142.598 38.8144 142.925 37.8144 143.494 37.0324C144.4 35.8017 145.96 35.1992 148.185 35.1992C149.624 35.1992 150.906 35.5069 152.03 36.1094C153.155 36.7119 153.711 37.8529 153.711 39.5323V45.9036C153.711 46.3524 153.723 46.878 153.735 47.5061C153.759 47.9805 153.832 48.3009 153.941 48.4804C154.049 48.6471 154.219 48.7881 154.448 48.9035V49.4419H150.724C150.615 49.1599 150.543 48.9035 150.507 48.6471C150.47 48.4035 150.434 48.1215 150.41 47.801C149.938 48.3522 149.382 48.8138 148.766 49.1983C148.028 49.647 147.181 49.8778 146.25 49.8778C145.053 49.8778 144.074 49.5188 143.288 48.8009C142.514 48.083 142.115 47.0702 142.115 45.7498C142.115 44.0448 142.744 42.8013 143.989 42.0321C144.678 41.6091 145.682 41.3142 147.024 41.1347L148.197 40.9809ZM150.289 42.6731C150.071 42.8141 149.853 42.9295 149.624 43.0193C149.394 43.109 149.092 43.1859 148.705 43.2628L147.919 43.4166C147.181 43.5576 146.661 43.7243 146.347 43.9166C145.803 44.2499 145.537 44.7627 145.537 45.455C145.537 46.0703 145.706 46.519 146.032 46.801C146.359 47.0831 146.758 47.2112 147.23 47.2112C147.979 47.2112 148.669 46.9805 149.298 46.519C149.926 46.0575 150.253 45.2242 150.277 44.0064V42.6731H150.289Z" fill="#057299"/>
<path d="M162.694 35.1992C162.743 35.1992 162.84 35.212 162.985 35.2249V38.9426C162.767 38.9169 162.574 38.9041 162.404 38.8913C162.235 38.8785 162.102 38.8785 161.993 38.8785C160.615 38.8785 159.684 39.3528 159.212 40.3014C158.946 40.8399 158.813 41.6603 158.813 42.7756V49.4162H155.379V35.5325H158.656V37.9554C159.188 37.0324 159.647 36.3915 160.034 36.0581C160.675 35.4941 161.51 35.1992 162.538 35.1992C162.598 35.1992 162.658 35.1992 162.694 35.1992Z" fill="#057299"/>
<path d="M170.99 35.7515C171.607 36.1233 172.115 36.6361 172.49 37.2899V30.6621H175.972V49.4302H172.635V47.5072C172.151 48.3277 171.583 48.9302 170.966 49.302C170.338 49.6737 169.564 49.866 168.633 49.866C167.097 49.866 165.815 49.2122 164.764 47.8918C163.712 46.5841 163.191 44.892 163.191 42.8408C163.191 40.4692 163.712 38.5975 164.739 37.2386C165.767 35.8797 167.146 35.2003 168.875 35.2003C169.672 35.2003 170.374 35.3798 170.99 35.7515ZM171.837 45.6612C172.345 44.892 172.599 43.9049 172.599 42.687C172.599 40.982 172.2 39.7769 171.39 39.0334C170.894 38.5975 170.313 38.3667 169.661 38.3667C168.657 38.3667 167.919 38.7642 167.447 39.5718C166.976 40.3795 166.747 41.3666 166.747 42.5588C166.747 43.8408 166.988 44.8664 167.46 45.6355C167.931 46.4047 168.657 46.7893 169.636 46.7893C170.591 46.8021 171.329 46.4175 171.837 45.6612Z" fill="#057299"/>
<path d="M30.8129 46.0938C30.1358 46.5297 29.3257 46.7348 28.3825 46.7348C27.1129 46.7348 25.9884 46.2604 24.9848 45.299C23.9933 44.3375 23.4975 42.7094 23.4975 40.4018C23.4975 38.1071 23.957 36.3893 24.876 35.2483C25.7949 34.1074 26.9678 33.5305 28.3946 33.5305C29.1442 33.5305 29.8214 33.6715 30.4259 33.9535C31.5142 34.4663 32.2034 35.3637 32.4815 36.6457H36.121C35.9155 34.8381 35.1417 33.3254 33.7632 32.1075C32.3969 30.8896 30.5832 30.2871 28.3342 30.2871C25.7344 30.2871 23.6426 31.2101 22.0707 33.0433C20.4988 34.8894 19.7129 37.3251 19.7129 40.3634C19.7129 43.376 20.4988 45.7477 22.0586 47.4783C23.558 49.209 25.4805 50.0679 27.8384 50.0679C28.975 50.0679 29.9665 49.8628 30.8129 49.4654V46.0938Z" fill="#057299"/>
<path d="M28.3828 39.4043V42.84H33.0018V47.7371H36.2423V39.4043H28.3828Z" fill="#0FB2B7"/>
</g>
<defs>
<clipPath id="clip0_161_839">
<rect width="161.29" height="20.5714" fill="white" transform="translate(19.3555 29.7148)"/>
</clipPath>
</defs>
</svg>
