<svg width="200" height="80" viewBox="0 0 200 80" fill="none" xmlns="http://www.w3.org/2000/svg">
<rect width="200" height="80" rx="25" fill="#E1F3F5"/>
<path d="M35.5915 28.9315C35.3764 28.4878 35.6452 28.1141 36.2098 28.1141H40.3495C40.6721 28.1141 40.9141 28.3009 40.9678 28.4644L48.0852 42.9395C48.122 43.0142 48.198 43.0615 48.2812 43.0615C48.3628 43.0615 48.4376 43.016 48.4751 42.9435L63.0377 14.8015C63.0915 14.6614 63.3065 14.4512 63.656 14.4512H67.7958C68.3603 14.4512 68.6291 14.8949 68.4141 15.2686L49.1399 51.4695C49.0323 51.6563 48.871 51.8198 48.5216 51.8198H48.1184C47.7689 51.8198 47.6076 51.6797 47.5001 51.4695L35.5915 28.9315Z" fill="#2B3A57"/>
<path d="M67.4727 29.3044C67.4727 28.9541 67.7415 28.6738 68.1985 28.6738H83.4404C83.8436 28.6738 84.1662 28.9774 84.1662 29.3044V31.9903C84.1662 32.3406 83.8974 32.6209 83.4404 32.6209H75.0124C73.5355 32.6209 72.3382 33.8182 72.3382 35.2951C72.3382 36.772 73.5355 37.9693 75.0124 37.9693H81.5856C81.9888 37.9693 82.3114 38.2729 82.3114 38.5999V41.3324C82.3114 41.6828 81.9619 41.963 81.5856 41.963H75.1876C73.6139 41.963 72.3382 43.2387 72.3382 44.8124C72.3382 46.3861 73.614 47.6618 75.1876 47.6618H83.4404C83.8436 47.6618 84.1662 47.9654 84.1662 48.2924V50.9782C84.1662 51.3286 83.8974 51.6088 83.4404 51.6088H68.1985C67.7952 51.6088 67.4727 51.3052 67.4727 50.9782V29.3044Z" fill="#2B3A57"/>
<path d="M90.5391 29.3044C90.5391 28.9541 90.8079 28.6738 91.2649 28.6738H101.964C106.453 28.6738 110.136 31.7801 110.136 35.6804C110.136 40.3756 106.971 46.0439 109.457 50.0267L109.759 50.5111C110.028 50.9549 109.759 51.4453 109.141 51.4453H105.216C104.867 51.4453 104.706 51.3052 104.598 51.1417L100.383 43.8362C99.9138 43.024 99.0473 42.5236 98.1096 42.5236C96.6602 42.5236 95.4853 43.6985 95.4853 45.1478V50.8381C95.4853 51.1884 95.1358 51.4687 94.7595 51.4687H91.2917C90.8885 51.4687 90.5659 51.1651 90.5659 50.8381L90.5391 29.3044ZM101.561 39.0436C103.523 39.0436 105.27 37.5255 105.27 35.7272C105.27 34.0222 103.523 32.5742 101.561 32.5742H98.6931C96.9066 32.5742 95.4584 34.0224 95.4584 35.8089C95.4584 37.5954 96.9066 39.0436 98.6931 39.0436H101.561Z" fill="#2B3A57"/>
<path d="M116.412 29.3044C116.404 29.3044 116.398 29.2984 116.399 29.2909C116.405 28.9469 116.673 28.6738 117.124 28.6738H127.823C132.312 28.6738 135.995 31.7801 135.995 35.6804C135.995 40.3756 132.83 46.0439 135.316 50.0267L135.619 50.5111C135.888 50.9549 135.619 51.4453 135.001 51.4453H131.076C130.726 51.4453 130.565 51.3052 130.458 51.1417L126.242 43.8362C125.773 43.024 124.907 42.5236 123.969 42.5236C122.52 42.5236 121.345 43.6985 121.345 45.1479V50.8381C121.345 51.1884 120.995 51.4687 120.619 51.4687H117.151C116.748 51.4687 116.425 51.1651 116.425 50.8381V29.3179C116.425 29.3104 116.419 29.3044 116.412 29.3044ZM127.447 39.0436C129.409 39.0436 131.157 37.5255 131.157 35.7272C131.157 34.0222 129.409 32.5742 127.447 32.5742H124.579C122.793 32.5742 121.345 34.0224 121.345 35.8089C121.345 37.5954 122.793 39.0436 124.579 39.0436H127.447Z" fill="#2B3A57"/>
<path d="M139.327 50.6288L150.967 28.7214C151.075 28.5346 151.236 28.3711 151.585 28.3711H151.988C152.392 28.3711 152.499 28.5112 152.607 28.7214L164.139 50.6288C164.354 51.0725 164.085 51.4462 163.521 51.4462H160.268C159.704 51.4462 159.435 51.2594 159.193 50.8156C158.052 48.6603 155.813 47.3123 153.374 47.3123H150.092C147.654 47.3123 145.415 48.6603 144.273 50.8156C144.112 51.166 143.763 51.4462 143.198 51.4462H139.945C139.381 51.4462 139.085 51.0492 139.327 50.6288ZM151.707 43.6689C153.435 43.6689 154.543 41.8325 153.738 40.304L151.772 36.5695C151.756 36.5404 151.726 36.5221 151.693 36.5221C151.66 36.5221 151.629 36.5406 151.614 36.57L149.67 40.316C148.877 41.844 149.985 43.6689 151.707 43.6689Z" fill="#2B3A57"/>
<path d="M179.087 65.7157H20.9146C20.0275 65.7157 19.3555 65.0851 19.3555 64.3611V15.6884C19.3555 14.9177 20.0813 14.3338 20.9146 14.3338H56.3178C56.6673 14.3338 56.8824 14.6374 56.7748 14.9177L55.2157 18.3743C55.1619 18.5144 55.0006 18.6079 54.7587 18.6079H24.7856C24.5168 18.6079 24.2748 18.7947 24.2748 19.0516V61.0446C24.2748 61.2782 24.4899 61.4884 24.7856 61.4884H175.216C175.484 61.4884 175.726 61.3015 175.726 61.0446V19.0049C175.726 18.7713 175.511 18.5611 175.216 18.5611H73.2264C72.877 18.5611 72.6619 18.2575 72.7694 17.9773L74.5705 14.5207C74.6243 14.3805 74.7856 14.2871 75.0275 14.2871H179.087C179.974 14.2871 180.646 14.9177 180.646 15.6417V64.291C180.646 65.0617 179.92 65.7157 179.087 65.7157Z" fill="#057299"/>
</svg>
