<svg width="24" height="24" viewBox="0 0 24 24" fill="none" xmlns="http://www.w3.org/2000/svg">
<path d="M11.7143 6.91434C12.7624 5.84374 14.127 5.14286 15.7143 5.14286C19.1857 5.14286 22 7.95703 22 11.4286V20H19.7143V11.4286C19.7143 9.21943 17.9234 7.42857 15.7143 7.42857C13.5052 7.42857 11.7143 9.21943 11.7143 11.4286V20H9.42859V5.71429H11.7143V6.91434ZM3.71428 3.42857C2.76751 3.42857 2 2.66106 2 1.71429C2 0.767509 2.76751 0 3.71428 0C4.66105 0 5.42857 0.767509 5.42857 1.71429C5.42857 2.66106 4.66105 3.42857 3.71428 3.42857ZM2.57143 5.71429H4.85714V20H2.57143V5.71429Z" fill="#E1F3F5"/>
</svg>
