<svg width="24" height="24" viewBox="0 0 24 24" fill="none" xmlns="http://www.w3.org/2000/svg">
<path d="M7.25458 18.4944L7.97931 18.917C9.19006 19.623 10.5661 20 12.002 20C16.4203 20 20.002 16.4183 20.002 12C20.002 7.58172 16.4203 4 12.002 4C7.58367 4 4.00195 7.58172 4.00195 12C4.00195 13.4363 4.37918 14.8128 5.08563 16.0238L5.50801 16.7478L4.85452 19.1494L7.25458 18.4944ZM2.00613 22L3.35809 17.0315C2.49591 15.5536 2.00195 13.8345 2.00195 12C2.00195 6.47715 6.4791 2 12.002 2C17.5248 2 22.002 6.47715 22.002 12C22.002 17.5228 17.5248 22 12.002 22C10.1681 22 8.44948 21.5064 6.97183 20.6447L2.00613 22ZM8.39329 7.30833C8.52717 7.29892 8.6615 7.29748 8.79556 7.30402C8.84972 7.30758 8.90362 7.31384 8.95756 7.32007C9.11682 7.33846 9.29195 7.43545 9.35083 7.56894C9.64915 8.24536 9.93861 8.92565 10.2192 9.60963C10.2811 9.76062 10.2438 9.95633 10.126 10.1457C10.0662 10.2428 9.97225 10.379 9.86345 10.5183C9.75036 10.663 9.50696 10.9291 9.50696 10.9291C9.50696 10.9291 9.40835 11.0473 9.44552 11.1944C9.46 11.25 9.50618 11.331 9.54805 11.3991C9.57124 11.4368 9.59277 11.4705 9.60674 11.4938C9.86266 11.9211 10.2067 12.3543 10.6269 12.7616C10.7473 12.8783 10.8641 12.9974 10.9897 13.108C11.458 13.5209 11.9878 13.8583 12.56 14.1082L12.5651 14.1105C12.6496 14.1469 12.693 14.1668 12.8167 14.2193C12.8791 14.2457 12.9429 14.2685 13.0084 14.2858C13.0321 14.292 13.0564 14.2955 13.0808 14.2972C13.2425 14.3069 13.336 14.2032 13.3759 14.1555C14.0994 13.279 14.1656 13.2218 14.1706 13.2222V13.2238C14.2657 13.1236 14.4152 13.0888 14.5486 13.097C14.6095 13.1007 14.6701 13.1124 14.7255 13.1377C15.2573 13.3803 16.1268 13.7587 16.1268 13.7587L16.7083 14.0201C16.8057 14.0671 16.8946 14.1778 16.8989 14.2854C16.9015 14.3523 16.9087 14.4603 16.8848 14.6579C16.8535 14.9166 16.7748 15.2281 16.6966 15.3913C16.6416 15.5058 16.5704 15.6074 16.4876 15.6934C16.3753 15.81 16.2919 15.8808 16.1569 15.9814C16.0747 16.0426 16.0321 16.0714 16.0321 16.0714C15.8932 16.159 15.8149 16.2028 15.6494 16.2909C15.392 16.428 15.1076 16.5068 14.8163 16.5218C14.6306 16.5313 14.4454 16.5447 14.2599 16.5347C14.2517 16.5342 13.6917 16.4482 13.6917 16.4482C12.2698 16.0742 10.9548 15.3736 9.85131 14.402C9.6257 14.2034 9.41647 13.9885 9.20291 13.7759C8.31385 12.8908 7.64079 11.9364 7.23266 11.0336C7.0314 10.5884 6.90396 10.1116 6.90195 9.62098C6.89826 9.01405 7.09696 8.4232 7.46666 7.94186C7.53954 7.84697 7.60871 7.74855 7.72806 7.63586C7.85445 7.51651 7.93489 7.45244 8.02154 7.40811C8.13704 7.34902 8.2639 7.31742 8.39329 7.30833Z" fill="#E1F3F5"/>
</svg>
